<?xml version="1.0" encoding="utf-8"?>
<!-- Generator: Adobe Illustrator 20.1.0, SVG Export Plug-In . SVG Version: 6.00 Build 0)  -->
<svg version="1.1" id="ip" xmlns="http://www.w3.org/2000/svg" xmlns:xlink="http://www.w3.org/1999/xlink" x="0px" y="0px"
	 width="69.5px" height="67.9px" viewBox="0 0 69.5 67.9" enable-background="new 0 0 69.5 67.9" xml:space="preserve">
<g>
	<path d="M8.1,15.2c4.8,0,8.2-3,8.2-7.6C16.2,3,12.9,0,8.1,0C3.3,0,0,3,0,7.6C0,12.2,3.3,15.2,8.1,15.2z"/>
	<path d="M45.4,3.8H20.9v58.4h-5.5V23.9H0.9v44h5.7h8.9h5.5h0h5.6h9.2H41v-5.7h-5.2V47.8h9.6c13.4,0,24.1-8.6,24.1-22.8
		C69.5,13.5,61.9,3.8,45.4,3.8z M43.2,35.4h-7.4V16.2h7.4c8.2,0,10.8,4,10.8,9.5C54.1,31.5,50.6,35.4,43.2,35.4z"/>
</g>
</svg>
