<?xml version="1.0" encoding="UTF-8" standalone="no"?>
<!-- Generator: Adobe Illustrator 20.1.0, SVG Export Plug-In . SVG Version: 6.00 Build 0)  -->
<svg id="ip" xmlns:rdf="http://www.w3.org/1999/02/22-rdf-syntax-ns#" xmlns="http://www.w3.org/2000/svg" enable-background="new 0 0 69.5 67.9" xml:space="preserve" height="71" viewBox="0 0 71 70.999998" width="71" version="1.1" y="0px" x="0px" xmlns:cc="http://creativecommons.org/ns#" xmlns:dc="http://purl.org/dc/elements/1.1/"><metadata id="metadata13"><rdf:RDF><cc:Work rdf:about=""><dc:format>image/svg+xml</dc:format><dc:type rdf:resource="http://purl.org/dc/dcmitype/StillImage"/><dc:title/></cc:Work></rdf:RDF></metadata><rect id="rect4141" height="71" width="71.01" y=".001990" x="0" fill="#176c9c"/><g id="g3" fill="#ffffff" transform="translate(.5754 1.302)"><path id="path5" d="m8.1 15.2c4.8 0 8.2-3 8.2-7.6-0.1-4.6-3.4-7.6-8.2-7.6s-8.1 3-8.1 7.6 3.3 7.6 8.1 7.6z"/><path id="path7" d="m45.4 3.8h-24.5v58.4h-5.5v-38.3h-14.5v44h5.7 8.9 5.5 5.6 9.2 5.2v-5.7h-5.2v-14.4h9.6c13.4 0 24.1-8.6 24.1-22.8 0-11.5-7.6-21.2-24.1-21.2zm-2.2 31.6h-7.4v-19.2h7.4c8.2 0 10.8 4 10.8 9.5 0.1 5.8-3.4 9.7-10.8 9.7z"/></g></svg>
