<?xml version="1.0" encoding="UTF-8" standalone="no"?>
<!-- Generator: Adobe Illustrator 20.1.0, SVG Export Plug-In . SVG Version: 6.00 Build 0)  -->
<svg id="Layer_1" xmlns:rdf="http://www.w3.org/1999/02/22-rdf-syntax-ns#" xmlns="http://www.w3.org/2000/svg" enable-background="new 0 0 61.4 64" xml:space="preserve" height="64px" viewBox="0 0 61.4 64" width="61.4px" version="1.1" y="0px" x="0px" xmlns:cc="http://creativecommons.org/ns#" xmlns:dc="http://purl.org/dc/elements/1.1/"><metadata id="metadata15"><rdf:RDF><cc:Work rdf:about=""><dc:format>image/svg+xml</dc:format><dc:type rdf:resource="http://purl.org/dc/dcmitype/StillImage"/><dc:title/></cc:Work></rdf:RDF></metadata><rect id="rect4143" height="65.1" width="64.48" y="-.4824" x="-1.738" fill="#176c9c"/><g id="g3"><g id="g5"><path id="path7" d="m41.1 59.8s10.4-7 10.4-11.3c0-1.7-1-3-3.2-3s-4.7 1.7-4.7 1.7l-2.8-4.7s3.7-3.2 9.1-3.2c5.8 0 9.3 3.6 9.3 8 0 4.5-3.8 7.9-7.4 10.9h9.5v5.7h-20.3l0.1-4.1z" fill="#FFFFFF"/></g></g><path id="path9" d="m24.5 0h-24.5v64h20v-5.7h-5.2v-14.3h9.6c13.4 0 24.1-8.6 24.1-22.8 0.1-11.5-7.5-21.2-24-21.2zm-2.2 31.6h-7.4v-19.2h7.4c8.2 0 10.8 4 10.8 9.5 0 5.7-3.4 9.7-10.8 9.7z" fill="#FFFFFF"/></svg>
