<?xml version="1.0" encoding="UTF-8" standalone="no"?>
<!-- Generator: Adobe Illustrator 20.1.0, SVG Export Plug-In . SVG Version: 6.00 Build 0)  -->

<svg
   xmlns:dc="http://purl.org/dc/elements/1.1/"
   xmlns:cc="http://creativecommons.org/ns#"
   xmlns:rdf="http://www.w3.org/1999/02/22-rdf-syntax-ns#"
   xmlns:svg="http://www.w3.org/2000/svg"
   xmlns="http://www.w3.org/2000/svg"
   xmlns:sodipodi="http://sodipodi.sourceforge.net/DTD/sodipodi-0.dtd"
   xmlns:inkscape="http://www.inkscape.org/namespaces/inkscape"
   id="Layer_1"
   enable-background="new 0 0 61.4 64"
   xml:space="preserve"
   height="65"
   viewBox="0 0 64.999998 65"
   width="65"
   version="1.1"
   y="0px"
   x="0px"
   inkscape:version="0.91 r13725"
   sodipodi:docname="p2_white_176c9c.svg"><defs
     id="defs11" /><sodipodi:namedview
     pagecolor="#ffffff"
     bordercolor="#666666"
     borderopacity="1"
     objecttolerance="10"
     gridtolerance="10"
     guidetolerance="10"
     inkscape:pageopacity="0"
     inkscape:pageshadow="2"
     inkscape:window-width="1879"
     inkscape:window-height="1056"
     id="namedview9"
     showgrid="false"
     inkscape:zoom="10.429825"
     inkscape:cx="18.168716"
     inkscape:cy="29.413787"
     inkscape:window-x="41"
     inkscape:window-y="24"
     inkscape:window-maximized="1"
     inkscape:current-layer="Layer_1"
     fit-margin-top="0"
     fit-margin-left="0"
     fit-margin-right="0"
     fit-margin-bottom="0" /><metadata
     id="metadata15"><rdf:RDF><cc:Work
         rdf:about=""><dc:format>image/svg+xml</dc:format><dc:type
           rdf:resource="http://purl.org/dc/dcmitype/StillImage" /><dc:title></dc:title></cc:Work></rdf:RDF></metadata><rect
     id="rect4143"
     height="65"
     width="65"
     y="0"
     x="0"
     style="fill:#176c9c" /><g
     id="g3"
     transform="translate(1.738,0.4824)"><g
       id="g5"><path
         id="path7"
         d="m 41.1,59.8 c 0,0 10.4,-7 10.4,-11.3 0,-1.7 -1,-3 -3.2,-3 -2.2,0 -4.7,1.7 -4.7,1.7 l -2.8,-4.7 c 0,0 3.7,-3.2 9.1,-3.2 5.8,0 9.3,3.6 9.3,8 0,4.5 -3.8,7.9 -7.4,10.9 l 9.5,0 0,5.7 -20.3,0 0.1,-4.1 z"
         inkscape:connector-curvature="0"
         style="fill:#ffffff" /></g></g><path
     id="path9"
     d="m 26.238,0.4824 -24.5,0 0,64 20,0 0,-5.7 -5.2,0 0,-14.3 9.6,0 c 13.4,0 24.1,-8.6 24.1,-22.8 0.1,-11.5 -7.5,-21.2 -24,-21.2 z m -2.2,31.6 -7.4,0 0,-19.2 7.4,0 c 8.2,0 10.8,4 10.8,9.5 0,5.7 -3.4,9.7 -10.8,9.7 z"
     inkscape:connector-curvature="0"
     style="fill:#ffffff" /></svg>