<?xml version="1.0" encoding="utf-8"?>
<!-- Generator: Adobe Illustrator 20.1.0, SVG Export Plug-In . SVG Version: 6.00 Build 0)  -->
<svg version="1.1" id="Layer_1" xmlns="http://www.w3.org/2000/svg" xmlns:xlink="http://www.w3.org/1999/xlink" x="0px" y="0px"
	 width="61.4px" height="64px" viewBox="0 0 61.4 64" enable-background="new 0 0 61.4 64" xml:space="preserve">
<g>
	<g>
		<path d="M41.1,59.8c0,0,10.4-7,10.4-11.3c0-1.7-1-3-3.2-3c-2.2,0-4.7,1.7-4.7,1.7l-2.8-4.7c0,0,3.7-3.2,9.1-3.2
			c5.8,0,9.3,3.6,9.3,8c0,4.5-3.8,7.9-7.4,10.9h9.5v5.7H41L41.1,59.8z"/>
	</g>
</g>
<path d="M24.5,0H0v64h5.6h9.2H20v-5.7h-5.2V44h9.6c13.4,0,24.1-8.6,24.1-22.8C48.6,9.7,41,0,24.5,0z M22.3,31.6h-7.4V12.4h7.4
	c8.2,0,10.8,4,10.8,9.5C33.1,27.6,29.7,31.6,22.3,31.6z"/>
</svg>
