<?xml version="1.0" standalone="no"?>
<!DOCTYPE svg PUBLIC "-//W3C//DTD SVG 20010904//EN"
 "http://www.w3.org/TR/2001/REC-SVG-20010904/DTD/svg10.dtd">
<svg version="1.0" xmlns="http://www.w3.org/2000/svg"
 width="139.000000pt" height="139.000000pt" viewBox="0 0 139.000000 139.000000"
 preserveAspectRatio="xMidYMid meet">
<metadata>
Created by potrace 1.11, written by Peter Selinger 2001-2013
</metadata>
<g transform="translate(0.000000,139.000000) scale(0.100000,-0.100000)"
fill="#000000" stroke="none">
<path d="M10 660 l0 -640 200 0 200 0 0 60 0 60 -50 0 -50 0 0 140 0 140 138
0 c90 0 158 5 195 15 134 35 236 115 292 228 108 221 41 472 -153 575 -103 55
-155 62 -479 62 l-293 0 0 -640z m576 362 c77 -39 107 -155 65 -248 -35 -76
-100 -104 -248 -104 l-93 0 0 191 0 191 118 -4 c94 -4 125 -9 158 -26z"/>
<path d="M947 509 c-47 -11 -117 -46 -117 -59 0 -5 12 -29 27 -53 l26 -44 49
21 c45 19 51 19 76 5 15 -8 28 -25 30 -37 7 -48 -79 -151 -180 -217 -24 -14
-28 -24 -28 -61 l0 -44 205 0 205 0 0 60 0 60 -90 0 -89 0 49 46 c108 101 119
212 30 287 -50 43 -114 55 -193 36z"/>
</g>
</svg>
