<svg version="1" xmlns="http://www.w3.org/2000/svg" width="933.333" height="933.333" viewBox="0 0 700.000000 700.000000"><path d="M0 350v350h700V0H0v350zM326.5 7.3c38.7 5 68 13.1 96 26.7 48.3 23.4 83.8 61.2 102.5 109.1 11.5 29.6 15.4 52.7 15.4 90.9 0 28.9-1.8 43.6-7.8 67.4-12.4 48.3-39.6 90.6-77.6 121-30.1 23.9-68.9 41.7-109 50-28.1 5.7-30.4 5.9-101.7 6.3l-66.3.5V633h56v61H19V4.9l147.3.4c129.9.3 148.7.6 160.2 2zM566.3 429c28.7 2.4 50.8 11.9 67.3 29.2 10.2 10.6 16.1 21.3 20.6 36.8 2 7.1 1.6 33-.5 40.9-7 25-24.8 49.9-55.3 77.1-7.7 6.9-15.8 13.9-17.9 15.7l-4 3.2 51.3.1H679v61H459.7l.7-7.7c.3-4.2.6-14 .6-21.8v-14.2l6.3-4.4c29.1-20.3 61.5-48.1 78-66.7 19.4-21.9 27.7-37.2 27.7-51 0-26.8-23.9-38.6-56.1-27.7-6.6 2.3-23.9 10.5-26.7 12.8-.9.7-1.6.7-2.3 0-.5-.5-7.5-11.9-15.4-25.2l-14.4-24.2 6.7-4.9c21.7-16 54.6-27.5 83.7-29.3 2.8-.2 5-.4 5.1-.5.1-.1 5.8.3 12.7.8z"/><path d="M179 242v103.1l53.3-.4c53.1-.4 53.2-.4 63.7-2.9 23.3-5.7 38.9-13.8 51.9-26.9 17-17.2 25.7-39.1 26.8-67.9 1.3-34.7-6.3-59.8-23.7-78-13.5-14-30.8-22.4-57-27.6-7.1-1.4-17.2-1.7-61.7-2.1l-53.3-.5V242z"/></svg>