<?xml version="1.0" standalone="no"?>
<!DOCTYPE svg PUBLIC "-//W3C//DTD SVG 20010904//EN"
 "http://www.w3.org/TR/2001/REC-SVG-20010904/DTD/svg10.dtd">
<svg version="1.0" xmlns="http://www.w3.org/2000/svg"
 width="700.000000pt" height="700.000000pt" viewBox="0 0 700.000000 700.000000"
 preserveAspectRatio="xMidYMid meet">
<metadata>
Created by potrace 1.11, written by Peter Selinger 2001-2013
</metadata>
<g transform="translate(0.000000,700.000000) scale(0.100000,-0.100000)"
fill="#000000" stroke="none">
<path d="M0 3500 l0 -3500 3500 0 3500 0 0 3500 0 3500 -3500 0 -3500 0 0
-3500z m1070 3350 c146 -30 279 -100 378 -198 90 -90 133 -159 172 -274 108
-316 14 -658 -231 -842 -80 -60 -183 -108 -294 -137 -124 -33 -359 -33 -480
-1 -179 48 -335 152 -428 286 -92 130 -129 260 -129 446 2 378 226 649 602
725 101 20 298 18 410 -5z m3735 -360 c828 -62 1446 -388 1798 -948 144 -230
246 -520 289 -827 20 -137 16 -533 -5 -675 -37 -238 -99 -444 -196 -645 -110
-229 -222 -387 -400 -566 -371 -372 -881 -600 -1470 -659 -57 -5 -354 -10
-667 -10 l-564 0 0 -710 0 -710 255 0 255 0 0 -285 0 -285 -1977 2 -1978 3 -3
2172 -2 2173 720 0 720 0 0 -1890 0 -1890 265 0 265 0 0 2880 0 2880 1278 0
c788 0 1331 -4 1417 -10z"/>
<path d="M3590 4326 l0 -946 343 0 c517 0 690 16 873 81 298 105 485 318 548
621 35 170 29 402 -14 575 -11 43 -41 121 -66 173 -83 168 -241 300 -439 365
-191 64 -225 67 -757 72 l-488 5 0 -946z"/>
</g>
</svg>
