<svg version="1" xmlns="http://www.w3.org/2000/svg" width="1365.333" height="1365.333" viewBox="0 0 1024.000000 1024.000000"><path d="M21 512v512h160c127.3 0 160-.3 160.1-1.3.4-5.5.1-88.8-.3-89.2-.3-.3-19-.5-41.6-.5l-41.2-.1-.2-111.9c-.2-61.5 0-112.9.3-114.2.3-1.3 1.1-2.2 1.7-2 .7.1 1.2-.3 1.2-.8 0-.7.6-.7 2 0 1.4.8 2 .8 2 0s.6-.8 2 0 2 .8 2 0c0-.7.6-.8 1.8-.1 1.3.7 2.2.7 2.9 0 .8-.8 1.3-.7 1.7 0 .5.8 1.3.8 2.7.1 1.3-.8 1.9-.7 1.9 0 0 .8.6.8 2 0s2-.8 2 0 .6.8 2 0 2-.8 2 0 .6.8 2 0 2-.8 2 0 .6.8 2 0 2-.8 2 0 .6.8 2 0 2-.8 2 0 .6.8 2 0 2-.8 2 0 .6.8 2 0 2-.8 2 0 .6.8 2 0 2-.8 2 0 .6.8 2 0 2-.8 2 0c0 .6.5.8 1.1.5 1.6-1.1 7-1.2 7.5-.3.3.5 1.2.4 1.9-.2.9-.8 1.5-.8 2 0 .4.7 1.2.7 2.6 0 1.2-.7 1.9-.7 1.9-.1s1.1.6 3 .1 3-.5 3 .1.7.6 1.9-.1c1.3-.7 2.2-.7 2.6 0 .4.7 1.2.7 2.5 0s2.1-.7 2.5 0c.5.8 1.1.8 2 0 .9-.8 1.5-.8 2 0 .4.7 1.2.7 2.6 0 1.2-.7 1.9-.7 1.9-.1s1.1.6 3 .1 3-.5 3 .1.7.6 1.9-.1c1.3-.7 2.2-.7 2.6 0 .4.7 1.2.7 2.5 0s2.1-.7 2.5 0c.5.8 1.1.8 2 0 .9-.8 1.5-.8 2 0 .4.7 1.2.7 2.6 0 1-.6 1.9-.7 1.9-.3 0 .9 12.1.9 14.5 0 .8-.4 1.5-.2 1.5.3 0 .6 1 .6 2.6 0 1.4-.6 2.3-.7 2.1-.2-.6.8 10.5.7 12.8-.2.8-.3 1.5-.1 1.5.5s.7.6 1.7.2c2.2-1 4.4-1 6.1 0 .6.5 1.2.5 1.2 0 0-.4 2.8-.9 6.3-.9 6.6-.2 24.2-1.2 24.2-1.4 0-.1 2.3-.3 5-.5 2.8-.3 6.8-.7 9-1 2.2-.3 5.8-.7 8-1 2.2-.2 5.1-.7 6.5-1 1.4-.3 4.5-.8 7-1.1 2.5-.3 4.8-.8 5.1-1 .3-.1 2.8-.6 5.5-1 2.7-.3 5.2-.8 5.5-1 .3-.2 1.9-.5 3.5-.8 1.6-.3 9.3-2.2 16.9-4.2 7.7-2 14.5-3.7 15-3.9.6-.1 1.7-.5 2.5-.8.8-.3 6.4-2.2 12.5-4.2 6-2 11.5-4.1 12.2-4.7.7-.6 1.3-.8 1.3-.4 0 .3 2.5-.5 5.5-1.9 3.1-1.3 5.7-2.4 6-2.5 3-.6 32.5-14.8 34.8-16.8.9-.8 1.7-1.1 1.7-.6 0 .5.4.4.8-.1.7-1 1.7-1.6 9-5.6 4.7-2.6 7-4.1 17.8-11.4 4.8-3.3 9.5-6.5 10.4-7 1.5-.9 13.9-10.6 16.7-13 .6-.5 3.5-3 6.4-5.5 14.1-12.1 36.7-36.1 46.5-49.5 1.6-2.2 3.7-4.9 4.7-5.9.9-1.1 1.7-2.3 1.7-2.7 0-.4.6-1.4 1.3-2.1 1.1-1.2 5.1-7.1 10.3-15.3 2.9-4.6 4.1-6.7 6-10.5 1-1.9 2.1-3.7 2.4-4 2.2-1.7 20.2-41.5 19.2-42.4-.3-.4.1-.6.8-.6.7 0 1.1-.3.7-.6-.3-.4 0-1.9.9-3.5.8-1.6 1.4-3.1 1.4-3.4.1-.6.7-2.8 1.7-5.3.3-.9.7-2.2.8-2.7.2-.6 1.4-4.8 2.9-9.5 2.7-9.1 8-31 9-37.4.4-2.1.9-4.8 1.1-6 .3-1.2.7-3.7.9-5.6.3-1.9.5-3.5.6-3.5.1 0 .3-1.1.5-2.5.1-1.4.5-5 .9-8 .3-3 .8-7.5 1.1-9.9.2-2.4.7-4.6.9-4.9.3-.2.1-1.3-.4-2.3-.6-1-.6-2-.2-2.3 2.6-1.6 1.6-66.3-1.2-83.1-.3-1.7-.8-5.3-1.2-8-.3-2.8-1.2-8.2-2-12-.8-3.9-1.7-8.6-2-10.5-.3-1.9-.8-3.8-1-4.1-.2-.3-.5-1.9-.8-3.5-.3-1.6-2.2-8.5-4.2-15.4-1.9-6.9-3.8-13.5-4.1-14.8-.3-1.2-.8-2.2-1.2-2.2-.4 0-.7-.8-.8-1.8-.1-.9-.7-3.1-1.4-4.7-.7-1.7-1.3-3.2-1.4-3.5-1-2.9-2.5-6.5-5.6-13.5-1.2-2.8-2.3-5.2-2.4-5.5-.6-2.1-8.2-16.8-9.2-17.8-.7-.7-1.3-1.8-1.3-2.3 0-.6-1.6-3.4-3.5-6.4-1.9-3-3.1-5.5-2.7-5.5.4 0 .2-.4-.3-.8-.9-.6-8.5-11.4-12-17-.5-.9-1.6-2.2-2.3-3-.7-.8-2.5-3-4-5-1.5-2.1-3.1-4.2-3.7-4.8-.5-.6-2.8-3.3-5-6-5.2-6.3-24.6-25.8-30.8-30.9-2.7-2.2-6.7-5.7-9-7.7-2.3-2.1-4.5-3.8-4.9-3.8-.7 0-2.9-1.6-6.2-4.5-2.4-2.2-19.8-13.5-20.7-13.5-.5 0-.9-.5-.9-1 0-.6-.5-1-1.1-1-.6 0-2.4-.9-4-2.1-1.6-1.1-2.9-1.7-2.9-1.3 0 .4-.8 0-1.8-.9-3.1-2.8-31.2-16.4-43.2-20.9-3-1.2-6.6-2.5-8-3.1-1.4-.6-2.7-1.1-3-1.2-.3 0-5-1.6-10.5-3.5s-10.4-3.4-11-3.5c-.5-.1-1.7-.4-2.5-.7-.8-.4-2.6-.9-4-1.3-1.4-.3-4.1-1.1-6-1.6-1.9-.6-4.4-1.2-5.5-1.4-1.1-.3-4.9-1.2-8.5-2-3.6-.9-7.4-1.8-8.5-2-1.1-.2-2.9-.6-4-.8-1.9-.4-7.5-1.5-12.2-2.3-1.3-.2-3.5-.7-5-1-1.6-.3-4.6-.7-6.8-.9-2.2-.3-7.4-.9-11.5-1.5s-9.1-1.3-11-1.5c-1.9-.1-6.9-.6-11-1s-9.7-1-12.5-1.3C452.8.9 353.9.5 235.8.3L21-.1V512zm384-312.6c3.6.3 6.5.6 6.5.7 0 0 1.8.3 4 .4 2.2.2 4 .4 4 .5 0 .1 1.6.3 3.5.5s6 .8 9 1.4c3 .6 6.6 1.3 8 1.5 2.2.4 7.3 1.7 18 4.8 1.9.5 4.5 1.2 5.8 1.5 1.2.3 2.2.9 2.2 1.4 0 .5.3.8.8.7 2.7-.9 31.8 14.4 33 17.4.2.4.8.8 1.3.8 1.6 0 15 12.6 20 18.7 3.4 4.1 9.7 14 12.7 19.8 3.7 7 9.2 20.9 9.2 23 0 .8.5 1.5 1.1 1.5.5 0 .8.4.5.9-.3.5.3 4.4 1.3 8.7 1.1 4.4 2.3 10.4 2.7 13.4.3 3 .9 6.6 1.1 8 .8 5.2 1 38.8.3 45-.5 3.6-1.1 8.3-1.4 10.5-1.1 9-5.5 26.7-7.7 30.8-.5 1-.7 2.2-.4 2.7.4.6.2 1-.2 1-.5 0-1.5 1.7-2.2 3.7-2.1 6-9.5 19.2-15 26.8-5.9 8.1-20.5 23.2-23.2 24-1.1.4-1.7 1.1-1.4 1.6.4.5-.1.9-.9.9-.9 0-1.6.4-1.6 1 0 .5-.5 1-1 1-1 0-6.9 3.8-8 5.1-.7.9-6.9 4-7.4 3.7-.2-.2-1.2.4-2.2 1.3-6.9 5.8-40.4 16.4-58.4 18.4-1.4.2-4.5.6-7 1-9.8 1.5-15.9 1.6-83 1.9l-69.5.2.1-153c.1-84.2.2-153.3.3-153.6.1-.7 136.1-.3 145.1.4zM822.9 628.4c-.2.2-6.2.7-13.4 1-12.4.6-14.5.8-22.5 2-14.2 2.1-25.6 4.8-38 9.1-4.1 1.4-8.2 2.7-9 2.9-1.8.5-15.8 6.5-22 9.5-4 1.9-9.8 5-17 9.1-1.4.8-2.9 1.4-3.3 1.5-.4 0-1.1.5-1.5 1-.4.6-2.4 1.9-4.4 3-2.1 1.1-3.8 2.3-3.8 2.7 0 .5-.6.8-1.2.8-.7 0-2.6 1.1-4.3 2.5-1.6 1.3-4.1 3.2-5.4 4.3-1.8 1.4-2.2 2.4-1.6 3.8.4 1 .7 2.2.7 2.6-.1.5.3.8.8.8.6 0 1 .5 1 1.2 0 .6.6 1.9 1.4 2.7.7.9 2.4 3.6 3.8 6.1 1.3 2.5 3.6 6.4 5.1 8.7 1.5 2.4 2.7 4.7 2.7 5.3 0 .5.5 1 1 1 .6 0 1 .4 1 1 0 .5 1.6 3.4 3.5 6.4 1.9 3 3.5 5.7 3.5 6 0 .3 1.4 2.5 3 4.9 1.7 2.5 3 5 3 5.6 0 .6.5 1.1 1 1.1.6 0 1 .4 1 .9 0 1.3 7.3 13.5 8.2 13.9.5.2.8.9.8 1.7 0 2.7 2.5 3.5 5.1 1.7 1.3-.9 4.2-2.7 6.4-3.8 5-2.7 18.8-9.7 19.5-9.9.3-.1 2.3-.9 4.4-1.8 2.2-1 5.1-2 6.5-2.4 1.4-.3 3.1-.9 3.6-1.4.6-.4 2.2-1 3.5-1.2 1.4-.3 4.3-1 6.5-1.5 6.7-1.8 16.2-3.3 21-3.4 3.4 0 14.1 1.3 17.7 2.2 2.4.6 4.8 1.2 5.3 1.3 3.4.8 13.6 7.6 17.3 11.6 4 4.4 8.7 12.8 9.6 17.5 2.4 11.5 2.6 17.6 1.1 25.2-.5 2.1-.8 4.2-.7 4.6.1.5-.2.8-.6.8-.4 0-.9 1.2-1 2.7-.1 1.5-.8 3-1.5 3.5-.6.4-.9.8-.4.8 1.7 0-12.3 24.8-14.5 25.8-.5.2-.8.8-.8 1.3 0 .9-5.8 8.5-13.5 17.8-8.4 10.3-35 37.1-36.7 37.1-.5 0-.6.5-.3 1s.3 1-.2 1c-.4 0-2.9 1.9-5.5 4.3-2.6 2.3-6.8 6-9.4 8.2-2.6 2.2-5.4 4.7-6.3 5.6-.9.9-7.7 6.4-15.1 12.3-7.4 5.9-14.4 11.5-15.5 12.5-1.1.9-3.6 2.8-5.5 4.1-1.9 1.4-4.2 3.1-5 3.9-.8.7-5.8 4.4-11 8.2-5.2 3.8-9.9 7.2-10.5 7.6-.5.5-3.4 2.4-6.2 4.3-3.3 2.2-5.3 4.3-5.3 5.5-.1 1.1-.3 10.8-.6 21.5-.2 10.7-.5 24.6-.7 30.7-.2 6.2-.1 11.3.3 11.4 1.9.4 323.3.3 323.9-.1.3-.3.6-20.8.6-45.7v-45.1l-75.5-.1c-41.5 0-75.7 0-75.9-.1-.4 0 1.5-1.7 9.4-8.3 7-5.9 14.7-12.7 16.6-14.6.9-.9 4.5-4.1 8-7.1 7-6.1 26.5-25.5 34.7-34.5 7-7.7 22.2-27.8 22.2-29.3 0-.7.4-1.2.8-1.2.5 0 1.5-1.2 2.3-2.8.8-1.5 1.7-2.9 2-3.2 2.3-2 15.3-31.1 16.3-36.6.2-1 1-3.9 1.7-6.4 1.4-5.2 1.4-5.3 2.4-14 .9-7.9 1.3-29.1.6-30.5-.3-.6-.6-2.4-.8-4-.1-1.7-.9-5.9-1.8-9.5l-2-8c-.2-.8-.4-1.5-.5-1.5-.1 0-.3-.7-.5-1.7-.4-2.3-7.7-19.2-8.5-19.8-.4-.3-1-1.5-1.4-2.8-.4-1.2-1.2-2.2-1.7-2.2s-.9-.6-.9-1.3c-.1-3.2-13.8-19-24.1-27.8-3.5-3-6.5-5.7-6.7-6.2-.2-.4-1-.7-1.8-.7s-1.4-.5-1.4-1c0-.6-.5-1-1.1-1-.6 0-2.3-.9-3.9-2-4.3-3-17.8-10-19.4-10-.8 0-1.6-.4-1.8-.8-.3-1-21.4-7.8-26.8-8.7-6.4-1.1-7.5-1.3-7.5-1.6 0-.1-1.3-.3-3-.4-1.6-.2-3-.4-3-.5 0-.3-5.2-.8-16.3-1.4-4.6-.3-8.7-.8-9.1-1.1-.5-.2-1-.3-1.2-.1z"/></svg>