<?xml version="1.0" encoding="utf-8"?>
<!-- Generator: Adobe Illustrator 22.1.0, SVG Export Plug-In . SVG Version: 6.00 Build 0)  -->
<svg version="1.1" id="Layer_1" xmlns="http://www.w3.org/2000/svg" xmlns:xlink="http://www.w3.org/1999/xlink" x="0px" y="0px"
	 viewBox="0 0 612 792" style="enable-background:new 0 0 612 792;" xml:space="preserve">
<g>
	<path d="M272.1,397.6v-0.4c0-1-0.4-1.4-1.2-1.4c-1.9,0-3.6,1.3-3.6,1.3l-0.8-2.5c0,0,2-1.5,5.3-1.5c3.1,0,4,1.2,4,3.6v3.9
		c0,1.2,1.2,1.2,1.2,1.2l-1,2.8c-2,0-2.9-0.7-3.4-1.6c-0.3,0.5-1.2,1.7-3.3,1.7c-2.1,0-3.5-1.2-3.5-3
		C265.8,399.5,268.1,398.1,272.1,397.6z M272.1,401.1v-1.6c-1.9,0.3-2.7,1.1-2.7,2c0,0.6,0.3,0.8,0.8,0.8
		C270.9,402.3,271.5,401.8,272.1,401.1z"/>
	<path d="M276.9,393.5h3.8l2.1,6.3l2.2-6.3h3.7l-4.3,11h-3.2L276.9,393.5z"/>
	<path d="M294.3,393.2c2.8,0,4.8,1.8,4.8,5.7l-1.9,0.5l-4.8,0.6c0.4,1.3,1.3,2,2.6,2c1.7,0,3.4-1.3,3.4-1.3l0.9,2.5
		c0,0-1.9,1.5-4.8,1.5c-3.9,0-5.8-2.7-5.8-5.7C288.8,395.8,291,393.2,294.3,393.2z M292.3,398.2l3-0.4c0,0,0-1.9-1.3-1.9
		C293,395.8,292.4,396.8,292.3,398.2z"/>
	<path d="M301.2,393.8l3.5-0.6v1.9c0.9-1,2.1-2,3.8-2c1.6,0,2.5,0.7,2.9,2c0.9-1,2.2-2,3.9-2c2.1,0,3.1,1.2,3.1,3.6v7.7h-3.6v-6.6
		c0-1.2-0.3-1.6-1-1.6c-0.7,0-1.5,0.6-2.2,1.3v6.8H308v-6.6c0-1.2-0.3-1.6-0.9-1.6c-0.7,0-1.3,0.5-2.2,1.3v6.8h-3.6V393.8z"/>
	<path d="M325.8,393.2c2.8,0,4.8,1.8,4.8,5.7l-1.9,0.5l-4.8,0.6c0.4,1.3,1.3,2,2.6,2c1.7,0,3.4-1.3,3.4-1.3l0.9,2.5
		c0,0-1.9,1.5-4.8,1.5c-3.9,0-5.8-2.7-5.8-5.7C320.3,395.8,322.4,393.2,325.8,393.2z M323.8,398.2l3-0.4c0,0,0-1.9-1.3-1.9
		C324.5,395.8,323.9,396.8,323.8,398.2z"/>
	<path d="M332.7,393.8l3.5-0.6v2c1-1.1,2.2-2,3.9-2c2,0,3.1,1.2,3.1,3.6v7.7h-3.6v-6c0-1.4,0-2.1-0.9-2.1c-0.7,0-1.5,0.5-2.3,1.4
		v6.8h-3.6V393.8z"/>
	<path d="M346.3,396h-1.8v-2l1.9-0.6v-2.6l3.5-0.6v3.3h3.3v2.5H350v4.4c0,1,0.3,1.4,1,1.4c0.4,0,1.1-0.2,2-0.9l1,2.6
		c0,0-1.7,1.2-3.9,1.2c-2.2,0-3.8-1.2-3.8-3.5V396z"/>
	<path d="M355.7,400.9c0,0,1.2,1.2,3.3,1.2c0.9,0,1.3-0.3,1.3-0.7c0-1.2-5-1.1-5-4.6c0-1.8,1.3-3.6,4.9-3.6c2,0,3.3,0.6,3.3,0.6
		l-0.7,2.9c0,0-1.1-0.8-2.8-0.8c-0.9,0-1.2,0.3-1.2,0.6c0,1.3,5,1.2,5,4.6c0,2-1.7,3.6-4.9,3.6c-2.5,0-4-1-4-1L355.7,400.9z"/>
	<g>
		<polygon points="251.4,403.4 251.4,393.5 247.7,393.5 247.7,404.8 249.2,404.8 251.4,404.8 252.8,404.8 252.8,403.4 		"/>
		<path d="M249.5,391.3c1.2,0,2.1-0.8,2.1-1.9c0-1.2-0.8-1.9-2.1-1.9c-1.2,0-2,0.8-2,1.9C247.5,390.5,248.3,391.3,249.5,391.3z"/>
	</g>
	<path d="M259,388.4h-6.2v16.4h1.4h2.3h1.3v-1.5h-1.3v-3.7h2.4c3.4,0,6.1-2.2,6.1-5.8C265.1,390.9,263.1,388.4,259,388.4z
		 M258.4,396.5h-1.9v-4.9h1.9c2.1,0,2.7,1,2.7,2.4C261.2,395.5,260.3,396.5,258.4,396.5z"/>
</g>
</svg>
