<?xml version="1.0" encoding="utf-8"?>
<!-- Generator: Adobe Illustrator 22.1.0, SVG Export Plug-In . SVG Version: 6.00 Build 0)  -->
<svg version="1.1" id="Layer_1" xmlns="http://www.w3.org/2000/svg" xmlns:xlink="http://www.w3.org/1999/xlink" x="0px" y="0px"
	 viewBox="0 0 612 792" style="enable-background:new 0 0 612 792;" xml:space="preserve">
<g>
	<path d="M289.4,387.6v-0.4c0-1-0.4-1.4-1.2-1.4c-1.9,0-3.6,1.3-3.6,1.3l-0.8-2.5c0,0,2-1.5,5.3-1.5c3.1,0,4,1.2,4,3.6v3.9
		c0,1.2,1.2,1.2,1.2,1.2l-1,2.8c-2,0-2.9-0.7-3.4-1.6c-0.3,0.5-1.2,1.7-3.3,1.7c-2.1,0-3.5-1.2-3.5-3
		C283.1,389.5,285.4,388.2,289.4,387.6z M289.4,391.2v-1.6c-1.9,0.3-2.7,1.1-2.7,2c0,0.6,0.3,0.8,0.8,0.8
		C288.2,392.3,288.9,391.9,289.4,391.2z"/>
	<path d="M294.2,383.5h3.8l2.1,6.3l2.2-6.3h3.7l-4.3,11h-3.2L294.2,383.5z"/>
	<path d="M311.6,383.3c2.8,0,4.8,1.8,4.8,5.7l-1.9,0.5l-4.8,0.6c0.4,1.3,1.3,2,2.6,2c1.7,0,3.4-1.3,3.4-1.3l0.9,2.5
		c0,0-1.9,1.5-4.8,1.5c-3.9,0-5.8-2.7-5.8-5.7C306.1,385.9,308.3,383.3,311.6,383.3z M309.6,388.2l3-0.4c0,0,0-1.9-1.3-1.9
		C310.3,385.9,309.7,386.8,309.6,388.2z"/>
	<path d="M318.6,383.8l3.5-0.6v1.9c0.9-1,2.1-2,3.8-2c1.6,0,2.5,0.7,2.9,2c0.9-1,2.2-2,3.9-2c2.1,0,3.1,1.2,3.1,3.6v7.7h-3.6V388
		c0-1.2-0.3-1.6-1-1.6c-0.7,0-1.5,0.6-2.2,1.3v6.8h-3.6V388c0-1.2-0.3-1.6-0.9-1.6c-0.7,0-1.3,0.5-2.2,1.3v6.8h-3.6V383.8z"/>
	<path d="M343.1,383.3c2.8,0,4.8,1.8,4.8,5.7l-1.9,0.5l-4.8,0.6c0.4,1.3,1.3,2,2.6,2c1.7,0,3.4-1.3,3.4-1.3l0.9,2.5
		c0,0-1.9,1.5-4.8,1.5c-3.9,0-5.8-2.7-5.8-5.7C337.6,385.9,339.8,383.3,343.1,383.3z M341.1,388.2l3-0.4c0,0,0-1.9-1.3-1.9
		C341.8,385.9,341.2,386.8,341.1,388.2z"/>
	<path d="M350.1,383.8l3.5-0.6v2c1-1.1,2.2-2,3.9-2c2,0,3.1,1.2,3.1,3.6v7.7h-3.6v-6c0-1.4,0-2.1-0.9-2.1c-0.7,0-1.5,0.5-2.3,1.4
		v6.8h-3.6V383.8z"/>
	<path d="M363.7,386.1h-1.8v-2l1.9-0.6v-2.6l3.5-0.6v3.3h3.3v2.5h-3.2v4.4c0,1,0.3,1.4,1,1.4c0.4,0,1.1-0.2,2-0.9l1,2.6
		c0,0-1.7,1.2-3.9,1.2c-2.2,0-3.8-1.2-3.8-3.5V386.1z"/>
	<path d="M254.4,401.8l3.5-0.6v2.3c0.5-0.8,1.7-2.3,3.3-2.3c0.6,0,0.9,0.2,0.9,0.2l-0.5,3.4c0,0-0.5-0.2-1.1-0.2c-1.1,0-2,1-2.5,1.5
		v6.4h-3.6V401.8z"/>
	<path d="M268.3,401.3c2.8,0,4.8,1.8,4.8,5.7l-1.9,0.5l-4.8,0.6c0.4,1.3,1.3,2,2.6,2c1.7,0,3.4-1.3,3.4-1.3l0.9,2.5
		c0,0-1.9,1.5-4.8,1.5c-3.9,0-5.8-2.7-5.8-5.7C262.7,403.9,264.9,401.3,268.3,401.3z M266.3,406.2l3-0.4c0,0,0-1.9-1.3-1.9
		C267,403.9,266.4,404.8,266.3,406.2z"/>
	<path d="M275.3,409c0,0,1.2,1.2,3.3,1.2c0.9,0,1.3-0.3,1.3-0.7c0-1.2-5-1.1-5-4.6c0-1.8,1.3-3.6,4.9-3.6c2,0,3.3,0.6,3.3,0.6
		l-0.7,2.9c0,0-1.1-0.8-2.8-0.8c-0.9,0-1.2,0.3-1.2,0.6c0,1.3,5,1.2,5,4.6c0,2-1.7,3.6-4.9,3.6c-2.5,0-4-1-4-1L275.3,409z"/>
	<path d="M290.2,401.3c2.8,0,4.8,1.8,4.8,5.7l-1.9,0.5l-4.8,0.6c0.4,1.3,1.3,2,2.6,2c1.7,0,3.4-1.3,3.4-1.3l0.9,2.5
		c0,0-1.9,1.5-4.8,1.5c-3.9,0-5.8-2.7-5.8-5.7C284.6,403.9,286.8,401.3,290.2,401.3z M288.2,406.2l3-0.4c0,0,0-1.9-1.3-1.9
		C288.9,403.9,288.3,404.8,288.2,406.2z"/>
	<path d="M297.1,401.8l3.5-0.6v2.3c0.5-0.8,1.7-2.3,3.3-2.3c0.6,0,0.9,0.2,0.9,0.2l-0.5,3.4c0,0-0.5-0.2-1.1-0.2c-1.1,0-2,1-2.5,1.5
		v6.4h-3.6V401.8z"/>
	<path d="M305.5,401.5h3.8l2.1,6.3l2.2-6.3h3.7l-4.3,11h-3.2L305.5,401.5z"/>
	<path d="M323.9,405.6v-0.4c0-1-0.4-1.4-1.2-1.4c-1.9,0-3.6,1.3-3.6,1.3l-0.8-2.5c0,0,2-1.5,5.3-1.5c3.1,0,4,1.2,4,3.6v3.9
		c0,1.2,1.2,1.2,1.2,1.2l-1,2.8c-2,0-2.9-0.7-3.4-1.6c-0.3,0.5-1.2,1.7-3.3,1.7c-2.1,0-3.5-1.2-3.5-3
		C317.5,407.5,319.9,406.2,323.9,405.6z M323.9,409.2v-1.6c-1.9,0.3-2.7,1.1-2.7,2c0,0.6,0.3,0.8,0.8,0.8
		C322.7,410.3,323.3,409.9,323.9,409.2z"/>
	<path d="M331,404.1h-1.8v-2l1.9-0.6v-2.6l3.5-0.6v3.3h3.3v2.5h-3.2v4.4c0,1,0.3,1.4,1,1.4c0.4,0,1.1-0.2,2-0.9l1,2.6
		c0,0-1.7,1.2-3.9,1.2c-2.2,0-3.8-1.2-3.8-3.5V404.1z"/>
	<path d="M339.9,397.5c0-1.2,0.8-1.9,2-1.9c1.2,0,2,0.7,2,1.9c0,1.2-0.8,1.9-2,1.9C340.7,399.4,339.9,398.6,339.9,397.5z
		 M340.1,401.5h3.6v11h-3.6V401.5z"/>
	<path d="M351.8,401.3c4.3,0,6.2,2.8,6.2,5.6c0,2.6-1.6,6-6.3,6c-4.2,0-6.1-2.8-6.1-5.8C345.6,404.3,347.2,401.3,351.8,401.3z
		 M351.7,410.3c1.4,0,2.5-1.3,2.5-3.1c0-1.6-0.8-3.3-2.5-3.3c-1.4,0-2.5,1.2-2.5,3.1C349.3,408.6,350.1,410.3,351.7,410.3z"/>
	<path d="M359.9,401.8l3.5-0.6v2c1-1.1,2.2-2,3.9-2c2,0,3.1,1.2,3.1,3.6v7.7h-3.6v-6c0-1.4,0-2.1-0.9-2.1c-0.7,0-1.5,0.5-2.3,1.4
		v6.8h-3.6V401.8z"/>
	<path d="M276.3,378.5h-6.1v16h1.4h2.3h1.3v-1.4h-1.3v-3.6h2.4c3.4,0,6-2.2,6-5.7C282.3,380.9,280.4,378.5,276.3,378.5z
		 M275.7,386.4h-1.8v-4.8h1.8c2,0,2.7,1,2.7,2.4C278.4,385.4,277.6,386.4,275.7,386.4z"/>
	<path d="M246.9,396.5h-6.1v16h1.4h2.3h1.3v-1.4h-1.3v-3.6h2.4c3.4,0,6-2.2,6-5.7C253,399,251.1,396.5,246.9,396.5z M246.4,404.4
		h-1.8v-4.8h1.8c2,0,2.7,1,2.7,2.4C249.1,403.5,248.2,404.4,246.4,404.4z"/>
</g>
</svg>
