<?xml version="1.0" encoding="utf-8"?>
<!-- Generator: Adobe Illustrator 22.1.0, SVG Export Plug-In . SVG Version: 6.00 Build 0)  -->
<svg version="1.1" id="Layer_1" xmlns="http://www.w3.org/2000/svg" xmlns:xlink="http://www.w3.org/1999/xlink" x="0px" y="0px"
	 viewBox="0 0 612 792" style="enable-background:new 0 0 612 792;" xml:space="preserve">
<g>
	<path d="M208.8,397.6v-0.4c0-1-0.4-1.4-1.2-1.4c-1.9,0-3.6,1.3-3.6,1.3l-0.8-2.5c0,0,2-1.5,5.3-1.5c3.1,0,4,1.2,4,3.6v3.9
		c0,1.2,1.2,1.2,1.2,1.2l-1,2.8c-2,0-2.9-0.7-3.4-1.6c-0.3,0.5-1.2,1.7-3.3,1.7c-2.1,0-3.5-1.2-3.5-3
		C202.4,399.5,204.8,398.2,208.8,397.6z M208.8,401.2v-1.6c-1.9,0.3-2.7,1.1-2.7,2c0,0.6,0.3,0.8,0.8,0.8
		C207.6,402.3,208.2,401.9,208.8,401.2z"/>
	<path d="M213.6,393.5h3.8l2.1,6.3l2.2-6.3h3.7l-4.3,11h-3.2L213.6,393.5z"/>
	<path d="M231,393.3c2.8,0,4.8,1.8,4.8,5.7l-1.9,0.5l-4.8,0.6c0.4,1.3,1.3,2,2.6,2c1.7,0,3.4-1.3,3.4-1.3l0.9,2.5
		c0,0-1.9,1.5-4.8,1.5c-3.9,0-5.8-2.7-5.8-5.7C225.4,395.9,227.6,393.3,231,393.3z M229,398.2l3-0.4c0,0,0-1.9-1.3-1.9
		C229.7,395.9,229.1,396.8,229,398.2z"/>
	<path d="M237.9,393.8l3.5-0.6v1.9c0.9-1,2.1-2,3.8-2c1.6,0,2.5,0.7,2.9,2c0.9-1,2.2-2,3.9-2c2.1,0,3.1,1.2,3.1,3.6v7.7h-3.6V398
		c0-1.2-0.3-1.6-1-1.6c-0.7,0-1.5,0.6-2.2,1.3v6.8h-3.6V398c0-1.2-0.3-1.6-0.9-1.6c-0.7,0-1.3,0.5-2.2,1.3v6.8h-3.6V393.8z"/>
	<path d="M262.5,393.3c2.8,0,4.8,1.8,4.8,5.7l-1.9,0.5l-4.8,0.6c0.4,1.3,1.3,2,2.6,2c1.7,0,3.4-1.3,3.4-1.3l0.9,2.5
		c0,0-1.9,1.5-4.8,1.5c-3.9,0-5.8-2.7-5.8-5.7C256.9,395.9,259.1,393.3,262.5,393.3z M260.5,398.2l3-0.4c0,0,0-1.9-1.3-1.9
		C261.2,395.9,260.6,396.8,260.5,398.2z"/>
	<path d="M269.4,393.8l3.5-0.6v2c1-1.1,2.2-2,3.9-2c2,0,3.1,1.2,3.1,3.6v7.7h-3.6v-6c0-1.4,0-2.1-0.9-2.1c-0.7,0-1.5,0.5-2.3,1.4
		v6.8h-3.6V393.8z"/>
	<path d="M283,396.1h-1.8v-2l1.9-0.6v-2.6l3.5-0.6v3.3h3.3v2.5h-3.2v4.4c0,1,0.3,1.4,1,1.4c0.4,0,1.1-0.2,2-0.9l1,2.6
		c0,0-1.7,1.2-3.9,1.2c-2.2,0-3.8-1.2-3.8-3.5V396.1z"/>
	<path d="M195.7,388.5h-6.1v16h1.4h2.3h1.3v-1.4h-1.3v-3.6h2.4c3.4,0,6-2.2,6-5.7C201.7,390.9,199.8,388.5,195.7,388.5z
		 M195.1,396.4h-1.8v-4.8h1.8c2,0,2.7,1,2.7,2.4C197.8,395.4,197,396.4,195.1,396.4z"/>
</g>
<g>
	<path d="M306.2,393.8l3.5-0.6v2.3c0.5-0.8,1.7-2.3,3.3-2.3c0.6,0,0.9,0.2,0.9,0.2l-0.5,3.4c0,0-0.5-0.2-1.1-0.2c-1.1,0-2,1-2.5,1.5
		v6.4h-3.6V393.8z"/>
	<path d="M320.1,393.3c2.8,0,4.8,1.8,4.8,5.7l-1.9,0.5l-4.8,0.6c0.4,1.3,1.3,2,2.6,2c1.7,0,3.4-1.3,3.4-1.3l0.9,2.5
		c0,0-1.9,1.5-4.8,1.5c-3.9,0-5.8-2.7-5.8-5.7C314.6,395.9,316.8,393.3,320.1,393.3z M318.1,398.2l3-0.4c0,0,0-1.9-1.3-1.9
		C318.8,395.9,318.2,396.8,318.1,398.2z"/>
	<path d="M327.1,401c0,0,1.2,1.2,3.3,1.2c0.9,0,1.3-0.3,1.3-0.7c0-1.2-5-1.1-5-4.6c0-1.8,1.3-3.6,4.9-3.6c2,0,3.3,0.6,3.3,0.6
		l-0.7,2.9c0,0-1.1-0.8-2.8-0.8c-0.9,0-1.2,0.3-1.2,0.6c0,1.3,5,1.2,5,4.6c0,2-1.7,3.6-4.9,3.6c-2.5,0-4-1-4-1L327.1,401z"/>
	<path d="M342,393.3c2.8,0,4.8,1.8,4.8,5.7l-1.9,0.5l-4.8,0.6c0.4,1.3,1.3,2,2.6,2c1.7,0,3.4-1.3,3.4-1.3l0.9,2.5
		c0,0-1.9,1.5-4.8,1.5c-3.9,0-5.8-2.7-5.8-5.7C336.5,395.9,338.7,393.3,342,393.3z M340,398.2l3-0.4c0,0,0-1.9-1.3-1.9
		C340.7,395.9,340.1,396.8,340,398.2z"/>
	<path d="M348.9,393.8l3.5-0.6v2.3c0.5-0.8,1.7-2.3,3.3-2.3c0.6,0,0.9,0.2,0.9,0.2l-0.5,3.4c0,0-0.5-0.2-1.1-0.2c-1.1,0-2,1-2.5,1.5
		v6.4h-3.6V393.8z"/>
	<path d="M357.3,393.5h3.8l2.1,6.3l2.2-6.3h3.7l-4.3,11h-3.2L357.3,393.5z"/>
	<path d="M375.7,397.6v-0.4c0-1-0.4-1.4-1.2-1.4c-1.9,0-3.6,1.3-3.6,1.3l-0.8-2.5c0,0,2-1.5,5.3-1.5c3.1,0,4,1.2,4,3.6v3.9
		c0,1.2,1.2,1.2,1.2,1.2l-1,2.8c-2,0-2.9-0.7-3.4-1.6c-0.3,0.5-1.2,1.7-3.3,1.7c-2.1,0-3.5-1.2-3.5-3
		C369.4,399.5,371.7,398.2,375.7,397.6z M375.7,401.2v-1.6c-1.9,0.3-2.7,1.1-2.7,2c0,0.6,0.3,0.8,0.8,0.8
		C374.5,402.3,375.1,401.9,375.7,401.2z"/>
	<path d="M382.8,396.1H381v-2l1.9-0.6v-2.6l3.5-0.6v3.3h3.3v2.5h-3.2v4.4c0,1,0.3,1.4,1,1.4c0.4,0,1.1-0.2,2-0.9l1,2.6
		c0,0-1.7,1.2-3.9,1.2c-2.2,0-3.8-1.2-3.8-3.5V396.1z"/>
	<path d="M391.7,389.5c0-1.2,0.8-1.9,2-1.9c1.2,0,2,0.7,2,1.9c0,1.2-0.8,1.9-2,1.9C392.5,391.4,391.7,390.6,391.7,389.5z
		 M391.9,393.5h3.6v11h-3.6V393.5z"/>
	<path d="M403.6,393.3c4.3,0,6.2,2.8,6.2,5.6c0,2.6-1.6,6-6.3,6c-4.2,0-6.1-2.8-6.1-5.8C397.4,396.3,399.1,393.3,403.6,393.3z
		 M403.6,402.3c1.4,0,2.5-1.3,2.5-3.1c0-1.6-0.8-3.3-2.5-3.3c-1.4,0-2.5,1.2-2.5,3.1C401.1,400.6,402,402.3,403.6,402.3z"/>
	<path d="M411.7,393.8l3.5-0.6v2c1-1.1,2.2-2,3.9-2c2,0,3.1,1.2,3.1,3.6v7.7h-3.6v-6c0-1.4,0-2.1-0.9-2.1c-0.7,0-1.5,0.5-2.3,1.4
		v6.8h-3.6V393.8z"/>
	<path d="M298.6,388.4h-6.1v16h1.4h2.3h1.3V403h-1.3v-3.6h2.4c3.4,0,6-2.2,6-5.7C304.6,390.8,302.7,388.4,298.6,388.4z M298,396.3
		h-1.8v-4.8h1.8c2,0,2.7,1,2.7,2.4C300.8,395.3,299.9,396.3,298,396.3z"/>
</g>
</svg>
