<svg xmlns="http://www.w3.org/2000/svg" id="svg10" width="255.384" height="36.003">
  <g id="articles-types-sprites" style="fill:#176c9c;  stroke:#176c9c; stroke-opacity:1; stroke-width:1;">
    <g id="link">
      <path id="path2" d="M141.264 4.706c-3.598-3.604-9.449-3.604-13.049.002l-3.3 3.3a12.59 12.59 0 0 1 5.895 1.27l.98-.979a4.167 4.167 0 0 1 5.881 0 4.171 4.171 0 0 1 0 5.886l-4.73 4.73c-1.614 1.62-4.262 1.62-5.883-.002a2.553 2.553 0 0 0-3.584.001 2.546 2.546 0 0 0 0 3.585c3.604 3.604 9.451 3.604 13.055 0l4.73-4.729c3.596-3.61 3.596-9.47.01-13.064h-.005"/>
      <path id="path4" d="M124.164 27.716a4.17 4.17 0 0 1-5.879 0 4.166 4.166 0 0 1 0-5.886l4.73-4.729a4.166 4.166 0 0 1 5.882 0 2.535 2.535 0 1 0 3.584-3.585c-3.6-3.603-9.439-3.602-13.053.001l-4.729 4.73c-3.605 3.602-3.605 9.45 0 13.053 3.6 3.6 9.44 3.6 13.051 0l3.3-3.304c-2.02.062-4.048-.36-5.9-1.27l-.986.99"/>
    </g>
    <path id="video" d="M85.99 2.002h-4v6h-18v-6h-4c-1.656 0-3 1.345-3 3v26c0 1.652 1.344 3 3 3h4v-6h18v6h4c1.658 0 3-1.348 3-3v-26c0-1.657-1.346-3-3-3M61.5 31.502h-2v-2h2v2m0-5h-2v-2h2v2m0-5h-2v-2h2v2m0-5h-2v-2h2v2m0-5h-2v-2h2v2m0-5h-2v-2h2v2m20.492 16.5h-18v-10h18v10m4.482 8.5h-2v-2h2v2m0-5h-2v-2h2v2m0-5h-2v-2h2v2m0-5h-2v-2h2v2m0-5h-2v-2h2v2m0-5h-2v-2h2v2"/>
    <path id="project" d="M198.521 13.511h-2.257v-2.905c0-1.609-1.315-2.912-2.94-2.912H181.26a2.904 2.904 0 0 0-2.918-2.69h-6.527a2.91 2.91 0 0 0-2.918 2.69h-.998c-1.624 0-2.938 1.303-2.938 2.912v17.48c0 1.603 1.312 2.913 2.938 2.913H194.023c1.625 0 3.188-1.31 3.506-2.914l3.385-11.646c.29-1.618-.767-2.928-2.393-2.928m-30.628 8.74V10.603h25.43v2.911h-20.229c-1.625 0-3.194 1.308-3.512 2.908l-1.689 5.827m26.793 5.026l-.037.13-.02.128c-.057.25-.422.554-.615.554h-24.743l3.146-10.85.031-.128.026-.134c.048-.25.42-.555.613-.555h24.742l-3.143 10.855"/>
    <path id="article" d="M33.294 6.887l-4.172-4.173a2.443 2.443 0 0 0-3.459.007L4.059 24.325 2 34.003l9.684-2.05 21.604-21.605a2.443 2.443 0 0 0 .006-3.46zM11.028 30.112l-6.688 1.55 1.561-6.68.812-.812 2.562 2.562 2.562 2.562z"/>
    <path id="research" d="M252.165 26.382l-6.002-6c-.492-.492-1.082-.812-1.7-1.013 2.19-4.354 1.478-9.788-2.157-13.42a11.52 11.52 0 0 0-8.188-3.397 11.579 11.579 0 0 0-8.207 3.397c-4.53 4.53-4.53 11.877 0 16.408a11.545 11.545 0 0 0 8.207 3.395c1.771 0 3.557-.415 5.184-1.229a4.075 4.075 0 0 0 1.021 1.715l6.004 6a4.115 4.115 0 0 0 2.933 1.213 4.143 4.143 0 0 0 2.938-1.213 4.168 4.168 0 0 0-.033-5.856zm-23.536-6.757c-3.016-3.018-3.016-7.924 0-10.938a7.697 7.697 0 0 1 5.48-2.27c2.061 0 4.005.807 5.466 2.27a7.694 7.694 0 0 1 2.268 5.475 7.71 7.71 0 0 1-2.27 5.476 7.684 7.684 0 0 1-5.467 2.268 7.752 7.752 0 0 1-5.477-2.28z"/>
  </g>
</svg>
