<?xml version="1.0" encoding="utf-8"?>
<!-- Generator: Adobe Illustrator 22.1.0, SVG Export Plug-In . SVG Version: 6.00 Build 0)  -->
<svg version="1.1" id="Layer_1" xmlns="http://www.w3.org/2000/svg" xmlns:xlink="http://www.w3.org/1999/xlink" x="0px" y="0px"
	 viewBox="0 0 612 792" style="enable-background:new 0 0 612 792;" xml:space="preserve">
<g>
	<path d="M260.8,388.1v-0.4c0-1-0.4-1.4-1.2-1.4c-1.9,0-3.6,1.3-3.6,1.3l-0.8-2.5c0,0,2-1.5,5.3-1.5c3.1,0,4,1.2,4,3.6v3.9
		c0,1.2,1.2,1.2,1.2,1.2l-1,2.8c-2,0-2.9-0.7-3.4-1.6c-0.3,0.5-1.2,1.7-3.3,1.7c-2.1,0-3.5-1.2-3.5-3
		C254.4,390,256.8,388.7,260.8,388.1z M260.8,391.7V390c-1.9,0.3-2.7,1.1-2.7,2c0,0.6,0.3,0.8,0.8,0.8
		C259.6,392.8,260.2,392.4,260.8,391.7z"/>
	<path d="M265.6,384h3.8l2.1,6.3l2.2-6.3h3.7l-4.3,11h-3.2L265.6,384z"/>
	<path d="M283,383.8c2.8,0,4.8,1.8,4.8,5.7l-1.9,0.5l-4.8,0.6c0.4,1.3,1.3,2,2.6,2c1.7,0,3.4-1.3,3.4-1.3l0.9,2.5
		c0,0-1.9,1.5-4.8,1.5c-3.9,0-5.8-2.7-5.8-5.7C277.4,386.4,279.6,383.8,283,383.8z M281,388.7l3-0.4c0,0,0-1.9-1.3-1.9
		C281.7,386.4,281.1,387.3,281,388.7z"/>
	<path d="M289.9,384.3l3.5-0.6v1.9c0.9-1,2.1-2,3.8-2c1.6,0,2.5,0.7,2.9,2c0.9-1,2.2-2,3.9-2c2.1,0,3.1,1.2,3.1,3.6v7.7h-3.6v-6.6
		c0-1.2-0.3-1.6-1-1.6c-0.7,0-1.5,0.6-2.2,1.3v6.8h-3.6v-6.6c0-1.2-0.3-1.6-0.9-1.6c-0.7,0-1.3,0.5-2.2,1.3v6.8h-3.6V384.3z"/>
	<path d="M314.5,383.8c2.8,0,4.8,1.8,4.8,5.7l-1.9,0.5l-4.8,0.6c0.4,1.3,1.3,2,2.6,2c1.7,0,3.4-1.3,3.4-1.3l0.9,2.5
		c0,0-1.9,1.5-4.8,1.5c-3.9,0-5.8-2.7-5.8-5.7C308.9,386.4,311.1,383.8,314.5,383.8z M312.5,388.7l3-0.4c0,0,0-1.9-1.3-1.9
		C313.2,386.4,312.6,387.3,312.5,388.7z"/>
	<path d="M321.4,384.3l3.5-0.6v2c1-1.1,2.2-2,3.9-2c2,0,3.1,1.2,3.1,3.6v7.7h-3.6v-6c0-1.4,0-2.1-0.9-2.1c-0.7,0-1.5,0.5-2.3,1.4
		v6.8h-3.6V384.3z"/>
	<path d="M335,386.6h-1.8v-2l1.9-0.6v-2.6l3.5-0.6v3.3h3.3v2.5h-3.2v4.4c0,1,0.3,1.4,1,1.4c0.4,0,1.1-0.2,2-0.9l1,2.6
		c0,0-1.7,1.2-3.9,1.2c-2.2,0-3.8-1.2-3.8-3.5V386.6z"/>
	<path d="M255.2,402.3l3.5-0.6v2.3c0.5-0.8,1.7-2.3,3.3-2.3c0.6,0,0.9,0.2,0.9,0.2l-0.5,3.4c0,0-0.5-0.2-1.1-0.2c-1.1,0-2,1-2.5,1.5
		v6.4h-3.6V402.3z"/>
	<path d="M269.1,401.8c2.8,0,4.8,1.8,4.8,5.7L272,408l-4.8,0.6c0.4,1.3,1.3,2,2.6,2c1.7,0,3.4-1.3,3.4-1.3l0.9,2.5
		c0,0-1.9,1.5-4.8,1.5c-3.9,0-5.8-2.7-5.8-5.7C263.5,404.4,265.7,401.8,269.1,401.8z M267.1,406.7l3-0.4c0,0,0-1.9-1.3-1.9
		C267.7,404.4,267.1,405.3,267.1,406.7z"/>
	<path d="M276.1,409.5c0,0,1.2,1.2,3.3,1.2c0.9,0,1.3-0.3,1.3-0.7c0-1.2-5-1.1-5-4.6c0-1.8,1.3-3.6,4.9-3.6c2,0,3.3,0.6,3.3,0.6
		l-0.7,2.9c0,0-1.1-0.8-2.8-0.8c-0.9,0-1.2,0.3-1.2,0.6c0,1.3,5,1.2,5,4.6c0,2-1.7,3.6-4.9,3.6c-2.5,0-4-1-4-1L276.1,409.5z"/>
	<path d="M291,401.8c2.8,0,4.8,1.8,4.8,5.7l-1.9,0.5l-4.8,0.6c0.4,1.3,1.3,2,2.6,2c1.7,0,3.4-1.3,3.4-1.3l0.9,2.5
		c0,0-1.9,1.5-4.8,1.5c-3.9,0-5.8-2.7-5.8-5.7C285.4,404.4,287.6,401.8,291,401.8z M288.9,406.7l3-0.4c0,0,0-1.9-1.3-1.9
		C289.6,404.4,289,405.3,288.9,406.7z"/>
	<path d="M297.9,402.3l3.5-0.6v2.3c0.5-0.8,1.7-2.3,3.3-2.3c0.6,0,0.9,0.2,0.9,0.2l-0.5,3.4c0,0-0.5-0.2-1.1-0.2c-1.1,0-2,1-2.5,1.5
		v6.4h-3.6V402.3z"/>
	<path d="M306.3,402h3.8l2.1,6.3l2.2-6.3h3.7l-4.3,11h-3.2L306.3,402z"/>
	<path d="M324.7,406.1v-0.4c0-1-0.4-1.4-1.2-1.4c-1.9,0-3.6,1.3-3.6,1.3l-0.8-2.5c0,0,2-1.5,5.3-1.5c3.1,0,4,1.2,4,3.6v3.9
		c0,1.2,1.2,1.2,1.2,1.2l-1,2.8c-2,0-2.9-0.7-3.4-1.6c-0.3,0.5-1.2,1.7-3.3,1.7c-2.1,0-3.5-1.2-3.5-3
		C318.3,408,320.7,406.7,324.7,406.1z M324.7,409.7V408c-1.9,0.3-2.7,1.1-2.7,2c0,0.6,0.3,0.8,0.8,0.8
		C323.5,410.8,324.1,410.4,324.7,409.7z"/>
	<path d="M331.7,404.6H330v-2l1.9-0.6v-2.6l3.5-0.6v3.3h3.3v2.5h-3.2v4.4c0,1,0.3,1.4,1,1.4c0.4,0,1.1-0.2,2-0.9l1,2.6
		c0,0-1.7,1.2-3.9,1.2c-2.2,0-3.8-1.2-3.8-3.5V404.6z"/>
	<path d="M340.6,398c0-1.2,0.8-1.9,2-1.9c1.2,0,2,0.7,2,1.9c0,1.2-0.8,1.9-2,1.9C341.4,399.9,340.6,399.1,340.6,398z M340.8,402h3.6
		v11h-3.6V402z"/>
	<path d="M352.5,401.8c4.3,0,6.2,2.8,6.2,5.6c0,2.6-1.6,6-6.3,6c-4.2,0-6.1-2.8-6.1-5.8C346.3,404.8,348,401.8,352.5,401.8z
		 M352.5,410.8c1.4,0,2.5-1.3,2.5-3.1c0-1.6-0.8-3.3-2.5-3.3c-1.4,0-2.5,1.2-2.5,3.1C350.1,409.1,350.9,410.8,352.5,410.8z"/>
	<path d="M360.6,402.3l3.5-0.6v2c1-1.1,2.2-2,3.9-2c2,0,3.1,1.2,3.1,3.6v7.7h-3.6v-6c0-1.4,0-2.1-0.9-2.1c-0.7,0-1.5,0.5-2.3,1.4
		v6.8h-3.6V402.3z"/>
	<path d="M247.7,379h-6.1v16h1.4h2.3h1.3v-1.4h-1.3V390h2.4c3.4,0,6-2.2,6-5.7C253.7,381.4,251.8,379,247.7,379z M247.1,386.9h-1.8
		v-4.8h1.8c2,0,2.7,1,2.7,2.4C249.8,385.9,249,386.9,247.1,386.9z"/>
	<path d="M247.6,397h-6.1v16h1.4h2.3h1.3v-1.4h-1.3V408h2.4c3.4,0,6-2.2,6-5.7C253.6,399.4,251.7,397,247.6,397z M247,404.9h-1.8
		v-4.8h1.8c2,0,2.7,1,2.7,2.4C249.8,403.9,248.9,404.9,247,404.9z"/>
</g>
</svg>
