<svg version="1" xmlns="http://www.w3.org/2000/svg" width="933.333" height="933.333" viewBox="0 0 700.000000 700.000000"><path d="M0 350v350h700V0H0v350zM110.5 15.9c26 6.9 44.6 24.4 52.5 49.6 3.2 10 3.9 28.5 1.5 39.1-3.5 15.8-9.5 26.5-21.3 37.6-11.8 11.1-27.8 17.8-47.7 19.8-32.3 3.3-61.8-8.6-77.1-31.1C9.8 118.2 6 104.9 6 87.4c0-37.8 23.5-65.7 61.5-73 10.3-2 32.7-1.2 43 1.5zM494 52.4c42.2 5.4 78.6 17.2 106.5 34.6 20 12.5 40.5 31.6 53.8 50.1 8.8 12.3 20.7 36.1 25.1 50.2 8.3 26.7 10.9 43.5 10.9 72.7.1 30.3-2.9 50.2-11.8 76.9C654.6 408.4 595 459.7 515 477.5c-24.3 5.4-29.8 5.8-94.7 6.2l-61.3.5V626h51v56H15V248l71.2.2 71.3.3.3 188.7.2 188.8h54V49.9l134.3.4c120.1.3 135.6.5 147.7 2.1z"/><path d="M359 267.6v94.6l45.8-.5c50.1-.4 56.4-1 73.4-6.7 16.3-5.5 26.7-11.9 37-22.8 10.4-11 16.6-23.2 20.5-39.7 2.5-11.2 2.5-40.3 0-52.5-3.4-15.5-9.1-27.7-18-37.9-12.5-14.5-35.1-24.8-61.2-28-5.3-.6-27.3-1.1-53.2-1.1H359v94.6z"/></svg>